<svg width="20" height="20" viewBox="0 0 20 20" fill="none" xmlns="http://www.w3.org/2000/svg">
<path fill-rule="evenodd" clip-rule="evenodd" d="M9.15095 5.68245C9.50958 6.97824 9.10619 8.33008 8.22234 9.16333C8.05476 9.32132 8.00075 9.57671 8.13241 9.76571C8.41266 10.168 8.73139 10.5505 9.08878 10.9081C9.44564 11.2652 9.82714 11.5838 10.2285 11.864C10.418 11.9963 10.6742 11.9414 10.8319 11.7724C11.6638 10.8815 13.0196 10.4737 14.3189 10.8339C16.0703 11.3193 17.056 13.0161 16.5206 14.6237C14.9516 19.3348 8.91119 14.6653 7.12279 12.8756C5.29118 11.0426 0.693476 5.03684 5.3639 3.47912C6.97035 2.94329 8.66586 3.92976 9.15095 5.68245Z" stroke="#173236" stroke-width="2"/>
</svg>
